<?xml version="1.0" encoding="iso-8859-1"?>
<!-- Generator: Adobe Illustrator 18.0.0, SVG Export Plug-In . SVG Version: 6.00 Build 0)  -->
<!DOCTYPE svg PUBLIC "-//W3C//DTD SVG 1.1//EN" "http://www.w3.org/Graphics/SVG/1.1/DTD/svg11.dtd">
<svg fill="#ffffff" version="1.1" id="Capa_1" xmlns="http://www.w3.org/2000/svg" xmlns:xlink="http://www.w3.org/1999/xlink" x="0px" y="0px"
	 viewBox="0 0 489.303 489.303" style="enable-background:new 0 0 489.303 489.303;" xml:space="preserve">
<g>
	<path d="M293.229,407.876c-9.074,0-16.422,7.353-16.422,16.423c0,17.73-14.419,32.157-32.156,32.157
		c-17.738,0-32.156-14.426-32.156-32.157s14.418-32.156,32.156-32.156c9.079,0,16.422-7.354,16.422-16.424v-53.094h-32.847v38.772
		c-27.921,7.298-48.58,32.727-48.58,62.903c0,35.846,29.159,65.003,65.005,65.003s65.002-29.157,65.002-65.003
		C309.653,415.229,302.307,407.876,293.229,407.876z"/>
	<path d="M409.973,146.052L336.036,18.756C329.286,7.145,316.87,0,303.432,0H185.87c-13.438,0-25.854,7.145-32.605,18.756
		L79.329,146.052c-7.361,12.654-6.72,28.428,1.636,40.449l71.962,103.518c7.041,10.137,18.606,16.183,30.956,16.183h121.536
		c12.352,0,23.915-6.046,30.955-16.183l71.963-103.518C416.694,174.48,417.336,158.706,409.973,146.052z"/>
</g>
<g>
</g>
<g>
</g>
<g>
</g>
<g>
</g>
<g>
</g>
<g>
</g>
<g>
</g>
<g>
</g>
<g>
</g>
<g>
</g>
<g>
</g>
<g>
</g>
<g>
</g>
<g>
</g>
<g>
</g>
</svg>
