<?xml version="1.0" encoding="iso-8859-1"?>
<!-- Generator: Adobe Illustrator 16.0.0, SVG Export Plug-In . SVG Version: 6.00 Build 0)  -->
<!DOCTYPE svg PUBLIC "-//W3C//DTD SVG 1.1//EN" "http://www.w3.org/Graphics/SVG/1.1/DTD/svg11.dtd">
<svg fill="#ffffff" version="1.1" id="Capa_1" xmlns="http://www.w3.org/2000/svg" xmlns:xlink="http://www.w3.org/1999/xlink" x="0px" y="0px"
	 width="99.109px" height="99.109px" viewBox="0 0 99.109 99.109" style="enable-background:new 0 0 99.109 99.109;"
	 xml:space="preserve">
<g>
	<g>
		<path d="M49.556,31.563c-18.001,0-32.592,14.592-32.592,32.591s14.591,32.591,32.592,32.591c18,0,32.59-14.593,32.59-32.591
			C82.146,46.155,67.557,31.563,49.556,31.563z M49.556,90.017c-14.264,0-25.865-11.603-25.865-25.862
			c0-14.26,11.602-25.864,25.865-25.864c14.26,0,25.863,11.604,25.863,25.864C75.419,78.414,63.816,90.017,49.556,90.017z"/>
		<path d="M66.15,54.152l-13.508,2.741c-2.115-0.896-4.583-0.903-6.771,0.248c-3.876,2.039-5.36,6.826-3.324,10.703
			c2.037,3.873,6.826,5.358,10.7,3.321c2.188-1.153,3.582-3.19,4.042-5.44l9.913-9.578c0.375-0.362,0.467-0.93,0.223-1.393
			C67.182,54.294,66.664,54.048,66.15,54.152z"/>
		<rect x="37.823" y="77.865" width="23.46" height="4.478"/>
		<path d="M79.266,17.535c-0.701-0.058-1.346-0.417-1.763-0.982c-4.038-5.471-10.526-8.845-17.431-8.845
			c-0.439,0-0.881,0.014-1.32,0.041c-0.582,0.035-1.154-0.138-1.619-0.489c-4.199-3.175-9.291-4.896-14.624-4.896
			c-9.55,0-18.024,5.539-21.975,13.925c-0.352,0.746-1.057,1.264-1.873,1.377C8.132,19.127,0,28.187,0,39.112
			c0,8.89,5.39,16.539,13.07,19.869c0.412-2.924,1.171-5.734,2.229-8.396c-4.032-2.242-6.77-6.542-6.77-11.472
			c0-7.235,5.887-13.121,13.122-13.121c0.364,0,0.725,0.029,1.081,0.058c2.085,0.162,3.973-1.191,4.481-3.213
			c1.764-7.031,8.054-11.942,15.295-11.942c4.137,0,8.052,1.598,11.025,4.499c1.016,0.991,2.457,1.413,3.849,1.123
			c0.886-0.184,1.791-0.278,2.69-0.278c5.066,0,9.59,2.848,11.807,7.432c0.777,1.612,2.48,2.571,4.264,2.388
			c0.442-0.044,0.887-0.066,1.315-0.066c7.235,0,13.121,5.886,13.121,13.121c0,4.93-2.736,9.229-6.769,11.473
			c1.06,2.661,1.816,5.473,2.229,8.395c7.683-3.329,13.069-10.978,13.069-19.867C99.111,27.781,90.363,18.455,79.266,17.535z"/>
	</g>
</g>
<g>
</g>
<g>
</g>
<g>
</g>
<g>
</g>
<g>
</g>
<g>
</g>
<g>
</g>
<g>
</g>
<g>
</g>
<g>
</g>
<g>
</g>
<g>
</g>
<g>
</g>
<g>
</g>
<g>
</g>
</svg>
